<?xml version="1.0" encoding="UTF-8"?>
<svg width="246px" height="53px" viewBox="0 0 246 53" version="1.1" xmlns="http://www.w3.org/2000/svg" xmlns:xlink="http://www.w3.org/1999/xlink">
    <!-- Generator: Sketch 57.1 (83088) - https://sketch.com -->
    <title>Group 51</title>
    <desc>Created with Sketch.</desc>
    <defs>
        <path d="M1.29744,1.36944 C0.666,2.19384 0.35064,3.28464 0.35064,4.64112 L0.35064,4.64112 C0.35064,5.97744 0.666,7.04952 1.29744,7.85592 L1.29744,7.85592 C1.93752,8.6616 2.78208,9.0648 3.8304,9.0648 L3.8304,9.0648 C4.78656,9.0648 5.55696,8.78472 6.1416,8.22528 L6.1416,8.22528 C6.71616,7.6752 7.00416,6.93576 7.00416,6.00624 L7.00416,6.00624 L5.94648,6.00624 C5.92776,6.64128 5.72328,7.1496 5.33376,7.52832 L5.33376,7.52832 C4.9536,7.90776 4.45176,8.09712 3.8304,8.09712 L3.8304,8.09712 C3.07872,8.09712 2.47536,7.73712 2.02104,7.01568 L2.02104,7.01568 C1.6128,6.36192 1.40904,5.56992 1.40904,4.64112 L1.40904,4.64112 C1.40904,3.69216 1.60848,2.88576 2.00736,2.22264 L2.00736,2.22264 C2.46168,1.48248 3.07008,1.11312 3.8304,1.11312 L3.8304,1.11312 C4.37832,1.11312 4.85568,1.29312 5.26392,1.65384 L5.26392,1.65384 C5.67288,2.02392 5.89968,2.47824 5.94648,3.01896 L5.94648,3.01896 L7.00416,3.01896 C6.93,2.19384 6.58656,1.50624 5.97384,0.95616 L5.97384,0.95616 C5.37048,0.41616 4.65696,0.14544 3.8304,0.14544 L3.8304,0.14544 C2.78208,0.14544 1.93752,0.55296 1.29744,1.36944 L1.29744,1.36944 Z" id="path-1"></path>
        <path d="M0.46728,0.31608 L0.46728,8.96472 L1.52568,8.96472 L1.52568,5.40864 L3.94704,5.40864 C4.75416,5.40864 5.39928,5.1768 5.88096,4.71168 L5.88096,4.71168 C6.36408,4.24728 6.60528,3.62592 6.60528,2.84832 L6.60528,2.84832 C6.60528,2.08008 6.36408,1.46808 5.88096,1.01376 L5.88096,1.01376 C5.39928,0.54864 4.75416,0.31608 3.94704,0.31608 L3.94704,0.31608 L0.46728,0.31608 Z M1.52568,1.28376 L3.94704,1.28376 C4.42944,1.28376 4.81896,1.42776 5.1156,1.7136 L5.1156,1.7136 C5.4036,2.0016 5.5476,2.3796 5.5476,2.8476 L5.5476,2.8476 C5.5476,3.3264 5.4036,3.71448 5.1156,4.01112 L5.1156,4.01112 C4.81896,4.2984 4.42944,4.44096 3.94704,4.44096 L3.94704,4.44096 L1.52568,4.44096 L1.52568,1.28376 Z" id="path-3"></path>
        <path d="M0.44784,0.57456 L0.44784,9.05328 L3.96864,9.05328 C4.69584,9.05328 5.32296,8.82936 5.85072,8.38368 L5.85072,8.38368 C6.3972,7.92792 6.67008,7.35696 6.67008,6.66864 L6.67008,6.66864 C6.67008,6.2496 6.54696,5.8644 6.30144,5.51088 L6.30144,5.51088 C6.07392,5.16744 5.76432,4.90176 5.37336,4.716 L5.37336,4.716 C5.6916,4.55832 5.94648,4.32072 6.138,4.00464 L6.138,4.00464 C6.31944,3.68928 6.41088,3.34008 6.41088,2.95848 L6.41088,2.95848 C6.41088,2.2896 6.16896,1.72296 5.68728,1.25784 L5.68728,1.25784 C5.20488,0.8028 4.63176,0.57456 3.96864,0.57456 L3.96864,0.57456 L0.44784,0.57456 Z M1.48464,1.5228 L3.96864,1.5228 C4.35888,1.5228 4.69152,1.66248 4.9644,1.94328 L4.9644,1.94328 C5.23728,2.22408 5.37336,2.56032 5.37336,2.952 L5.37336,2.952 C5.37336,3.31704 5.23296,3.62088 4.95072,3.86352 L4.95072,3.86352 C4.67712,4.10616 4.35024,4.22784 3.96864,4.22784 L3.96864,4.22784 L1.48464,4.22784 L1.48464,1.5228 Z M1.48464,5.17608 L3.96864,5.17608 C4.4136,5.17608 4.80024,5.31576 5.12784,5.5944 L5.12784,5.5944 C5.4648,5.88312 5.63256,6.24096 5.63256,6.66864 L5.63256,6.66864 C5.63256,7.08624 5.4648,7.43544 5.12784,7.71408 L5.12784,7.71408 C4.80024,7.974 4.4136,8.10432 3.96864,8.10432 L3.96864,8.10432 L1.48464,8.10432 L1.48464,5.17608 Z" id="path-5"></path>
    </defs>
    <g id="BCIO-Main-Site-2" stroke="none" stroke-width="1" fill="none" fill-rule="evenodd">
        <g id="1a-bcio-home" transform="translate(-840.000000, -796.000000)">
            <g id="Group-3">
                <g id="Group-9" transform="translate(819.000000, 744.000000)">
                    <g id="Group-51" transform="translate(21.000000, 52.000000)">
                        <polygon id="Fill-1" fill="#FFFFFE" points="220.19328 46.47528 245.14992 46.47528 245.14992 14.61816 220.19328 14.61816"></polygon>
                        <path d="M219.47616,47.20752 L245.8656,47.20752 L245.8656,13.8852 L219.47616,13.8852 L219.47616,47.20752 Z M220.90968,45.74304 L244.4328,45.74304 L244.4328,15.3504 L220.90968,15.3504 L220.90968,45.74304 Z" id="Fill-2" fill="#286AA6"></path>
                        <g id="Group-5" transform="translate(225.360000, 32.842080)">
                            <mask id="mask-2" fill="white">
                                <use xlink:href="#path-1"></use>
                            </mask>
                            <g id="Clip-4"></g>
                            <polygon id="Fill-3" fill="#8A8B8A" mask="url(#mask-2)" points="0.01584 9.3996 7.33824 9.3996 7.33824 -0.18864 0.01584 -0.18864"></polygon>
                        </g>
                        <g id="Group-8" transform="translate(233.280000, 32.842080)">
                            <mask id="mask-4" fill="white">
                                <use xlink:href="#path-3"></use>
                            </mask>
                            <g id="Clip-7"></g>
                            <polygon id="Fill-6" fill="#8A8B8A" mask="url(#mask-4)" points="0.13248 9.29952 6.94008 9.29952 6.94008 -0.01872 0.13248 -0.01872"></polygon>
                        </g>
                        <polygon id="Fill-9" fill="#8A8B8A" points="231.271848 19.736856 231.271848 23.236776 227.123208 23.236776 227.123208 19.736856 226.086408 19.736856 226.086408 28.214856 227.123208 28.214856 227.123208 24.185016 231.271848 24.185016 231.271848 28.214856 232.308648 28.214856 232.308648 19.736856"></polygon>
                        <g id="Group-12" transform="translate(233.280000, 19.162080)">
                            <mask id="mask-6" fill="white">
                                <use xlink:href="#path-5"></use>
                            </mask>
                            <g id="Clip-11"></g>
                            <polygon id="Fill-10" fill="#8A8B8A" mask="url(#mask-6)" points="0.11304 9.38736 7.00488 9.38736 7.00488 0.23976 0.11304 0.23976"></polygon>
                        </g>
                        <polygon id="Fill-13" fill="#286AA6" points="230.54544 32.114304 231.48864 32.919264 234.32688 29.446704 233.38296 28.641744"></polygon>
                        <g id="Group-50" transform="translate(0.000000, 0.442080)">
                            <path d="M186.958872,44.026344 C186.958872,44.698824 187.094232,45.195624 187.367112,45.517464 C187.639272,45.839304 187.969032,45.999864 188.356392,45.999864 C188.750232,45.999864 189.087192,45.833544 189.367992,45.500184 C189.648072,45.167544 189.789192,44.651304 189.789192,43.952184 C189.789192,43.286184 189.651672,42.787224 189.377352,42.456024 C189.103752,42.124104 188.776152,41.959224 188.395992,41.959224 C188.018712,41.959224 187.684632,42.135624 187.393752,42.487704 C187.103592,42.841224 186.958872,43.353144 186.958872,44.026344 L186.958872,44.026344 Z M186.156792,48.613464 L186.156792,41.383224 L186.963912,41.383224 L186.963912,42.062184 C187.153992,41.796504 187.368552,41.597064 187.608312,41.463864 C187.847352,41.331384 188.138232,41.265144 188.479512,41.265144 C188.925192,41.265144 189.319032,41.379624 189.661032,41.610024 C190.002312,41.838984 190.259352,42.162984 190.433592,42.581304 C190.607112,42.999624 190.694232,43.458264 190.694232,43.957224 C190.694232,44.491464 190.598472,44.973144 190.406232,45.401544 C190.213992,45.829944 189.936072,46.158264 189.569592,46.385784 C189.203832,46.614744 188.819352,46.728504 188.415432,46.728504 C188.120232,46.728504 187.855272,46.665864 187.620552,46.541304 C187.386552,46.416024 187.192872,46.259064 187.042392,46.068984 L187.042392,48.613464 L186.156792,48.613464 Z" id="Fill-14" fill="#939597"></path>
                            <path d="M195.099696,43.98696 C194.778576,44.118 194.296176,44.2296 193.652496,44.32176 C193.288176,44.3736 193.031136,44.43264 192.879936,44.49888 C192.728736,44.5644 192.612816,44.66088 192.530736,44.78616 C192.447936,44.91288 192.407616,45.05256 192.407616,45.20736 C192.407616,45.44352 192.496896,45.6408 192.676176,45.79848 C192.854736,45.95544 193.116096,46.03464 193.460976,46.03464 C193.801536,46.03464 194.105376,45.95976 194.371056,45.81 C194.636736,45.66096 194.832576,45.45648 194.957136,45.198 C195.052176,44.99712 195.099696,44.70192 195.099696,44.31168 L195.099696,43.98696 Z M195.173856,45.96552 C194.844816,46.24416 194.529456,46.44072 194.225616,46.55592 C193.922496,46.67112 193.597056,46.72872 193.249296,46.72872 C192.674736,46.72872 192.234096,46.5876 191.925216,46.30752 C191.616336,46.02672 191.462256,45.66816 191.462256,45.23184 C191.462256,44.97624 191.520576,44.74224 191.637216,44.53056 C191.753856,44.31888 191.905776,44.14968 192.095136,44.02152 C192.283776,43.89336 192.496176,43.79616 192.732336,43.73136 C192.905856,43.68456 193.168656,43.64064 193.520016,43.59816 C194.234976,43.51248 194.761296,43.41096 195.099696,43.29288 C195.103296,43.1712 195.104736,43.09416 195.104736,43.06176 C195.104736,42.70032 195.021216,42.44616 194.853456,42.29856 C194.627376,42.0984 194.291136,41.99832 193.844736,41.99832 C193.427856,41.99832 193.120416,42.07176 192.922416,42.2172 C192.722976,42.36336 192.576096,42.62184 192.481056,42.99264 L191.614896,42.87456 C191.694096,42.50304 191.822976,42.20424 192.003696,41.976 C192.184416,41.74848 192.445056,41.57208 192.786336,41.44968 C193.127616,41.32656 193.523616,41.26536 193.972896,41.26536 C194.419296,41.26536 194.781456,41.3172 195.060096,41.42232 C195.339456,41.52744 195.543936,41.65992 195.675696,41.81832 C195.806736,41.97816 195.898176,42.17832 195.951456,42.42168 C195.980976,42.57216 195.995376,42.84504 195.995376,43.23888 L195.995376,44.4204 C195.995376,45.24336 196.014816,45.76464 196.052256,45.98208 C196.089696,46.20096 196.164576,46.40976 196.276176,46.61064 L195.350976,46.61064 C195.258816,46.42632 195.199776,46.21176 195.173856,45.96552 L195.173856,45.96552 Z" id="Fill-16" fill="#939597"></path>
                            <path d="M197.35884,46.610352 L197.35884,41.383152 L198.15588,41.383152 L198.15588,42.175872 C198.35964,41.804352 198.54756,41.560272 198.71964,41.442192 C198.89244,41.324112 199.0818,41.265072 199.28844,41.265072 C199.58724,41.265072 199.89036,41.360112 200.19852,41.550912 L199.89396,42.372432 C199.67724,42.244992 199.46052,42.180912 199.2438,42.180912 C199.05084,42.180912 198.87588,42.239232 198.72252,42.355152 C198.56844,42.471792 198.45756,42.633792 198.39276,42.840432 C198.29412,43.155072 198.24444,43.499952 198.24444,43.873632 L198.24444,46.610352 L197.35884,46.610352 Z" id="Fill-18" fill="#939597"></path>
                            <path d="M202.659696,45.81792 L202.787856,46.60056 C202.538016,46.6524 202.314816,46.67904 202.118256,46.67904 C201.797136,46.67904 201.547296,46.62792 201.370176,46.5264 C201.193056,46.42488 201.068496,46.29096 200.995776,46.12536 C200.923776,45.95976 200.887776,45.61128 200.887776,45.07992 L200.887776,42.07248 L200.238336,42.07248 L200.238336,41.38344 L200.887776,41.38344 L200.887776,40.08888 L201.769056,39.55752 L201.769056,41.38344 L202.659696,41.38344 L202.659696,42.07248 L201.769056,42.07248 L201.769056,45.12888 C201.769056,45.3816 201.784176,45.5436 201.815856,45.61632 C201.846816,45.6876 201.897216,45.7452 201.967776,45.7884 C202.039056,45.83088 202.139136,45.85248 202.270896,45.85248 C202.369536,45.85248 202.498416,45.84024 202.659696,45.81792" id="Fill-20" fill="#939597"></path>
                            <path d="M206.907264,43.996824 C206.907264,44.666424 207.053424,45.167544 207.345024,45.500184 C207.637344,45.833544 208.004544,45.999864 208.448064,45.999864 C208.887264,45.999864 209.253744,45.832824 209.545344,45.498024 C209.836944,45.163224 209.983104,44.652744 209.983104,43.967304 C209.983104,43.320744 209.836224,42.831144 209.543184,42.497784 C209.249424,42.165144 208.884384,41.998824 208.448064,41.998824 C208.004544,41.998824 207.637344,42.163704 207.345024,42.495624 C207.053424,42.826824 206.907264,43.327224 206.907264,43.996824 M205.996464,43.996824 C205.996464,43.028424 206.265744,42.311304 206.803584,41.846184 C207.252864,41.458824 207.801504,41.265144 208.448064,41.265144 C209.166624,41.265144 209.753424,41.500584 210.209904,41.971464 C210.666384,42.442344 210.893904,43.092504 210.893904,43.922664 C210.893904,44.595144 210.793104,45.124344 210.590784,45.510264 C210.389904,45.896184 210.096144,46.194984 209.710944,46.408824 C209.324304,46.621944 208.903824,46.728504 208.448064,46.728504 C207.715824,46.728504 207.124704,46.493784 206.673264,46.024344 C206.222544,45.554904 205.996464,44.879544 205.996464,43.996824" id="Fill-22" fill="#939597"></path>
                            <path d="M212.144112,46.610352 L212.144112,42.072192 L211.361472,42.072192 L211.361472,41.383152 L212.144112,41.383152 L212.144112,40.827312 C212.144112,40.475232 212.175072,40.214592 212.237712,40.044672 C212.322672,39.814992 212.473152,39.628512 212.688432,39.485232 C212.902992,39.342672 213.203952,39.272112 213.591312,39.272112 C213.840432,39.272112 214.116192,39.301632 214.417872,39.360672 L214.285392,40.133232 C214.101792,40.100112 213.927552,40.084272 213.763392,40.084272 C213.494112,40.084272 213.304032,40.141152 213.192432,40.256352 C213.080832,40.370832 213.025392,40.586112 213.025392,40.900752 L213.025392,41.383152 L214.044192,41.383152 L214.044192,42.072192 L213.025392,42.072192 L213.025392,46.610352 L212.144112,46.610352 Z" id="Fill-24" fill="#939597"></path>
                            <path d="M114.018408,19.751256 C114.018408,13.249656 112.690008,8.186616 110.033208,4.561416 C108.367128,2.288376 106.048008,1.151496 103.072248,1.151496 C100.237608,1.151496 98.041608,2.021976 96.483528,3.762216 C93.613608,6.960456 92.178648,12.166056 92.178648,19.376856 C92.178648,25.097976 93.179448,29.540376 95.181048,32.701176 C97.181928,35.863416 99.989928,37.443816 103.603608,37.443816 C106.968168,37.443816 109.501848,35.951976 111.201768,32.966856 C113.079528,29.664216 114.018408,25.257816 114.018408,19.751256 M119.969928,19.483416 C119.969928,24.762456 118.383768,29.225736 115.214328,32.874696 C112.042728,36.523656 108.154728,38.347416 103.550328,38.347416 C98.661528,38.347416 94.551768,36.497016 91.222488,32.794056 C87.891768,29.093256 86.227128,24.532056 86.227128,19.111176 C86.227128,13.585896 87.829848,9.059976 91.036728,5.534856 C94.242168,2.010456 98.343288,0.247896 103.337928,0.247896 C108.048888,0.247896 111.998808,2.090376 115.187688,5.773896 C118.375848,9.458856 119.969928,14.028696 119.969928,19.483416" id="Fill-26" fill="#939597"></path>
                            <path d="M105.778944,20.33172 C105.778944,22.81284 104.190624,24.82452 102.232224,24.82452 C100.273104,24.82452 98.685504,22.81284 98.685504,20.33172 C98.685504,17.8506 100.273104,15.83892 102.232224,15.83892 C104.190624,15.83892 105.778944,17.8506 105.778944,20.33172" id="Fill-28" fill="#939597"></path>
                            <path d="M20.936232,27.45396 C20.936232,22.99068 19.129752,20.22732 15.516072,19.1646 C14.453352,18.84636 12.487032,18.68652 9.617832,18.68652 L9.617832,34.52148 C9.617832,35.54892 9.724392,36.13428 9.936792,36.2754 C10.290312,36.5238 11.282472,36.64764 12.911832,36.64764 C15.356232,36.64764 17.304552,35.8686 18.757512,34.30908 C20.209752,32.75028 20.936232,30.46572 20.936232,27.45396 M19.394712,9.70668 C19.394712,6.3054 18.615672,4.03884 17.056872,2.90484 C16.241832,2.3022 14.700312,2.00124 12.433752,2.00124 C11.831112,2.00124 10.892952,2.05452 9.617832,2.16108 L9.617832,17.57052 L10.095912,17.57052 L13.018392,17.46468 C15.037992,17.3934 16.605432,16.67628 17.721432,15.3126 C18.836712,13.94892 19.394712,12.0798 19.394712,9.70668 M26.515512,28.0386 C26.515512,31.65228 24.868152,34.32708 21.573432,36.06228 C19.979352,36.9126 17.694792,37.44396 14.719032,37.65636 C13.903272,37.69236 11.494872,37.70964 7.492392,37.70964 L1.009512,37.70964 C0.406872,37.70964 0.105912,37.55916 0.105912,37.2582 C0.105912,36.95724 0.655272,36.80604 1.753272,36.80604 C3.028392,36.80604 3.780792,36.67356 4.011912,36.40788 C4.241592,36.1422 4.357512,35.33652 4.357512,33.99012 L4.357512,5.24268 C4.357512,3.68388 4.286232,2.781 4.144392,2.53332 C3.895992,2.1078 2.993112,1.87812 1.435032,1.84212 C0.478152,1.84212 7.2e-05,1.65636 7.2e-05,1.28196 C7.2e-05,0.94716 0.442872,0.7794 1.328472,0.7794 L1.965672,0.7794 C2.355192,0.88596 2.710152,0.93852 3.028392,0.93852 L13.390632,0.93852 C17.215992,0.97452 20.067192,1.61172 21.945672,2.85156 C24.141672,4.30452 25.240392,6.41124 25.240392,9.1746 C25.240392,11.58444 24.336792,13.55868 22.530312,15.1002 C20.723832,16.64028 18.190152,17.60652 14.931432,17.99532 L14.931432,18.315 C18.154872,18.5274 20.670552,19.2006 22.477032,20.33388 C25.168392,22.03452 26.515512,24.60276 26.515512,28.0386" id="Fill-30" fill="#1273BE"></path>
                            <path d="M53.8812,27.34776 C53.8812,30.3948 52.72056,32.98968 50.40072,35.13312 C48.08016,37.27656 45.29016,38.3472 42.03144,38.3472 C40.1184,38.3472 37.83312,37.76328 35.17632,36.594 C34.46784,36.27504 33.93648,36.11592 33.58296,36.11592 C33.15744,36.11592 32.89176,36.60624 32.78592,37.58688 C32.74992,38.09376 32.52024,38.3472 32.09472,38.3472 C31.74048,38.3472 31.56336,38.1348 31.56336,37.71 C31.56336,37.42632 31.58064,37.21392 31.61664,37.07208 C31.8996,34.91208 32.04144,32.91048 32.04144,31.06728 C32.04144,30.71376 32.00616,29.7216 31.9356,28.09152 C31.8996,27.87912 31.88232,27.59616 31.88232,27.24192 C31.88232,26.70984 32.09472,26.44416 32.52024,26.44416 C32.87376,26.44416 33.12144,26.874 33.264,27.73224 C34.18488,34.10064 37.17792,37.28448 42.24384,37.28448 C44.40456,37.28448 46.07856,36.6732 47.26584,35.45136 C48.45168,34.22952 49.04568,32.50224 49.04568,30.27096 C49.04568,28.28736 48.46896,26.59536 47.3184,25.1964 C46.16712,23.79672 44.19144,22.4064 41.39352,21.02472 C38.02752,19.35936 35.68968,17.748 34.38,16.1892 C33.06888,14.6304 32.41368,12.70008 32.41368,10.3968 C32.41368,7.45704 33.3612,5.02992 35.25624,3.1176 C37.15128,1.20384 39.55176,0.24768 42.45624,0.24768 C43.6608,0.24768 45.32616,0.65592 47.4516,1.47024 C48.19536,1.75392 48.744,1.89504 49.09824,1.89504 C49.48776,1.89504 49.7448,1.82448 49.86936,1.68264 C49.9932,1.54152 50.1084,1.17 50.21496,0.56664 C50.2848,0.2124 50.47992,0.03528 50.79888,0.03528 C51.1524,0.03528 51.33096,0.24768 51.33096,0.67248 C51.33096,0.95688 51.31224,1.17 51.27768,1.3104 C51.17112,2.16144 51.11784,3.18816 51.11784,4.39272 C51.11784,6.09264 51.20568,7.43976 51.38352,8.4312 L51.4368,9.2808 C51.47136,9.67104 51.31224,9.86616 50.95872,9.86616 C50.56848,9.86616 50.3028,9.45864 50.16096,8.64288 C49.77144,6.55344 48.85056,4.80888 47.39832,3.4092 C45.94536,2.01096 44.316,1.3104 42.50952,1.3104 C40.73832,1.3104 39.33,1.87776 38.28528,3.01104 C37.23984,4.14504 36.71784,5.68584 36.71784,7.63416 C36.71784,9.90144 37.47888,11.72592 39.0024,13.1076 C39.85272,13.88664 41.69448,14.98536 44.52912,16.4016 C47.8584,18.06696 50.24952,19.75824 51.70248,21.47616 C53.15472,23.1948 53.8812,25.15176 53.8812,27.34776" id="Fill-32" fill="#1273BE"></path>
                            <path d="M80.342928,27.34776 C80.342928,30.3948 79.182288,32.98968 76.862448,35.13312 C74.541888,37.27656 71.751888,38.3472 68.493168,38.3472 C66.580128,38.3472 64.294848,37.76328 61.638048,36.594 C60.929568,36.27504 60.398208,36.11592 60.044688,36.11592 C59.619168,36.11592 59.353488,36.60624 59.247648,37.58688 C59.211648,38.09376 58.981968,38.3472 58.556448,38.3472 C58.202208,38.3472 58.025088,38.1348 58.025088,37.71 C58.025088,37.42632 58.042368,37.21392 58.078368,37.07208 C58.361328,34.91208 58.503168,32.91048 58.503168,31.06728 C58.503168,30.71376 58.467888,29.7216 58.397328,28.09152 C58.361328,27.87912 58.344048,27.59616 58.344048,27.24192 C58.344048,26.70984 58.556448,26.44416 58.981968,26.44416 C59.335488,26.44416 59.583168,26.874 59.725728,27.73224 C60.646608,34.10064 63.639648,37.28448 68.705568,37.28448 C70.866288,37.28448 72.540288,36.6732 73.727568,35.45136 C74.913408,34.22952 75.507408,32.50224 75.507408,30.27096 C75.507408,28.28736 74.930688,26.59536 73.780128,25.1964 C72.628848,23.79672 70.653168,22.4064 67.855248,21.02472 C64.489248,19.35936 62.151408,17.748 60.841728,16.1892 C59.530608,14.6304 58.875408,12.70008 58.875408,10.3968 C58.875408,7.45704 59.822928,5.02992 61.717968,3.1176 C63.613008,1.20384 66.013488,0.24768 68.917968,0.24768 C70.122528,0.24768 71.787888,0.65592 73.913328,1.47024 C74.657088,1.75392 75.205728,1.89504 75.559968,1.89504 C75.949488,1.89504 76.206528,1.82448 76.331088,1.68264 C76.454928,1.54152 76.570128,1.17 76.676688,0.56664 C76.746528,0.2124 76.941648,0.03528 77.260608,0.03528 C77.614128,0.03528 77.792688,0.24768 77.792688,0.67248 C77.792688,0.95688 77.773968,1.17 77.739408,1.3104 C77.632848,2.16144 77.579568,3.18816 77.579568,4.39272 C77.579568,6.09264 77.667408,7.43976 77.845248,8.4312 L77.898528,9.2808 C77.933088,9.67104 77.773968,9.86616 77.420448,9.86616 C77.030208,9.86616 76.764528,9.45864 76.622688,8.64288 C76.233168,6.55344 75.312288,4.80888 73.860048,3.4092 C72.407088,2.01096 70.777728,1.3104 68.971248,1.3104 C67.200048,1.3104 65.791728,1.87776 64.747008,3.01104 C63.701568,4.14504 63.179568,5.68584 63.179568,7.63416 C63.179568,9.90144 63.940608,11.72592 65.464128,13.1076 C66.314448,13.88664 68.156208,14.98536 70.990848,16.4016 C74.320128,18.06696 76.711248,19.75824 78.164208,21.47616 C79.616448,23.1948 80.342928,25.15176 80.342928,27.34776" id="Fill-34" fill="#1273BE"></path>
                            <path d="M123.694776,49.936752 C126.746856,46.695312 130.479336,41.215392 130.389336,34.782192 C130.396536,34.473312 130.363416,34.110432 130.295016,33.723792 C130.127256,32.771232 129.754296,31.699872 129.277656,31.262112 C126.818136,37.346832 124.113816,46.392192 123.408936,49.710672 C123.331896,49.969152 123.357816,50.118192 123.417576,50.108112 C123.482376,50.126832 123.536376,50.086512 123.694776,49.936752 M135.478296,12.785472 C135.892296,12.344112 136.237176,12.037392 136.475496,11.995632 C138.157416,11.606112 139.653576,13.123872 139.030056,12.895632 C137.933496,12.598272 136.461096,15.743952 135.494136,17.573472 C133.729416,20.802672 132.181416,24.391872 129.783816,30.128112 L129.824136,30.182112 C131.872536,29.084832 135.778536,26.153712 137.047176,24.640272 C137.066616,24.574752 137.091096,24.540192 137.150136,24.529392 C137.239416,24.514272 137.315016,24.592752 137.325816,24.652512 L137.335896,24.711552 C136.569816,25.769232 134.031096,28.089072 131.789736,29.835792 C131.276376,30.233952 130.353336,30.918672 129.922056,31.086432 C130.235256,31.645152 130.649256,32.771232 130.864536,33.991632 C130.964616,34.557552 131.009976,35.164512 131.015016,35.716032 C130.873176,44.494272 124.466616,51.704352 123.196536,51.990192 L123.107256,52.006032 C122.516856,52.140672 121.623336,51.254352 121.504536,50.752512 C121.120776,49.100112 123.200136,40.686912 126.605016,31.610592 C125.685576,31.096512 126.569016,29.313072 127.462536,29.155392 C129.493656,24.129072 131.740776,19.279872 133.514856,15.926832 C134.203176,14.607792 134.898696,13.501872 135.478296,12.785472" id="Fill-36" fill="#939597"></path>
                            <path d="M143.413272,21.736152 C138.021912,22.686552 133.566552,33.822792 135.360072,34.243272 C137.149272,34.634232 140.567832,29.116872 142.028712,25.727112 C141.832152,25.485912 141.376392,24.644232 141.443352,24.325272 C141.480072,24.012072 142.215912,22.960872 142.598232,22.862952 C142.890552,22.780872 143.260632,22.960872 143.335512,23.040072 C144.064152,23.863032 144.900072,24.422472 146.076552,24.122952 C148.039992,23.592312 148.937112,22.235832 149.269752,22.208472 C149.194872,22.651272 148.176792,23.845032 146.801592,24.578712 C146.182392,24.902712 145.567512,25.072632 145.091592,25.156872 C144.643752,25.235352 144.336312,25.228152 144.176472,25.195032 C144.071352,29.297592 138.661272,34.674552 135.472392,35.052552 C134.086392,35.204472 132.993432,34.231032 132.793992,33.098472 C131.937912,28.242792 137.605032,22.238712 142.310952,21.408552 C143.443512,21.209112 143.977032,21.452472 144.217512,21.594312 C144.381672,21.657672 144.292392,21.673512 144.172872,21.694392 C143.870472,21.716712 143.622072,21.699432 143.413272,21.736152" id="Fill-38" fill="#939597"></path>
                            <path d="M153.950616,23.686632 C151.483176,27.285192 148.248216,32.277672 146.524536,32.950872 C146.464776,32.960952 146.285496,32.992632 146.285496,32.992632 C145.808856,33.076872 144.743976,32.435352 144.617976,31.720392 C144.392616,30.439512 145.499976,27.141912 146.783016,24.490152 C147.567816,22.846392 148.566456,21.196152 149.206536,20.468952 C149.328936,20.293992 149.502456,20.232792 149.591736,20.216952 C150.305976,20.090952 151.673256,21.047112 151.809336,21.821832 C151.830936,21.941352 151.685496,21.813192 151.412616,21.831192 C150.955416,21.849912 149.976216,23.619672 149.195016,25.107912 C148.027896,27.372312 146.995416,30.226392 147.148056,31.089672 C148.472856,30.242232 151.038216,27.025272 152.225496,25.403832 C153.507096,23.611032 155.254536,20.631672 156.721176,19.021752 C156.849336,18.875592 156.992616,18.820152 157.112136,18.798552 C157.827096,18.672552 159.164136,19.634472 159.294456,20.379672 C159.316056,20.498472 159.200856,20.365992 158.927976,20.382552 C158.719176,20.419272 158.378616,20.755512 158.064696,21.240792 C157.701816,21.796632 157.057416,23.015592 156.305016,24.500232 C155.167416,26.758152 154.438776,29.067192 154.585656,29.900952 C156.362616,29.004552 159.878376,24.207912 161.390376,22.159512 C161.542296,21.979512 161.733816,22.191192 161.660376,22.296312 C159.567336,25.582392 155.589336,31.412952 153.802296,31.728312 C153.653256,31.754232 153.463896,31.726872 153.293976,31.633992 C152.775576,31.479192 152.059176,30.899592 151.964136,30.363192 C151.912296,30.065832 151.995816,29.497752 152.066376,29.024712 C152.331336,27.565272 153.090216,25.251192 153.950616,23.686632" id="Fill-40" fill="#939597"></path>
                            <path d="M168.8256,27.420192 C170.61264,26.583552 174.15288,21.751632 175.74336,19.628352 C175.89672,19.448352 176.08752,19.660032 176.01336,19.765152 C173.92176,23.051232 169.93296,28.822752 168.14592,29.138112 C167.84784,29.190672 167.47344,28.979712 167.112,28.675152 C166.716,28.346112 166.42872,27.935712 166.37112,27.608112 C166.0716,25.910352 168.64992,20.326752 169.95168,18.654192 C167.70384,20.186352 163.96056,24.562512 162.17712,27.334512 C161.85744,27.790272 161.57952,28.299312 161.32536,28.773792 C160.68888,29.868912 160.62192,30.709872 161.10504,30.840192 C160.24896,31.205232 159.36624,30.378672 158.97456,29.557152 C158.87952,29.359152 158.88528,28.528272 159.38928,27.027072 C159.85728,25.500672 160.67952,23.545152 161.42112,22.001472 C162.22536,20.292912 163.25784,18.482832 163.926,17.750592 C164.02464,17.610192 164.19816,17.549712 164.28744,17.533872 C165.03192,17.402112 166.36896,18.363312 166.50072,19.109232 C166.5216,19.228032 166.37616,19.099872 166.1328,19.112112 C165.7404,19.150992 164.8584,20.596032 164.16936,21.915072 C163.09512,24.008832 161.9352,26.485632 161.63568,27.399312 C161.87976,26.864352 162.33984,26.168832 162.8604,25.463232 C165.61872,21.598272 170.15184,16.653312 171.16488,16.474752 C171.87912,16.348752 173.11608,17.788752 172.78632,18.184752 C172.14696,18.911232 168.6384,26.010432 168.8256,27.420192" id="Fill-42" fill="#939597"></path>
                            <path d="M183.71988,15.058944 C183.31164,15.007824 182.86524,15.087024 182.46852,15.279984 C181.27548,15.827184 179.57772,17.693424 178.22268,19.590624 C175.98852,22.594464 174.5442,26.074944 174.80844,26.181504 C175.203,26.326944 179.38548,22.180464 182.3346,18.527904 L183.71988,15.058944 Z M183.91428,14.594544 C185.25708,11.409984 186.66756,8.611344 187.77492,6.359184 C188.49348,5.034384 189.15948,3.934224 189.76932,3.212064 C190.1538,2.776464 190.49868,2.469744 190.76652,2.422944 C192.41892,2.038464 193.91508,3.556224 193.32036,3.322944 C192.22452,3.025584 190.72188,6.177024 189.75492,8.005824 C188.73324,9.874944 187.82172,11.848464 186.74532,14.279184 C184.81716,18.674064 183.12804,23.025024 182.71476,25.033104 C184.27212,24.635664 188.6166,18.618624 189.711,17.165664 C189.86364,16.985664 190.05516,17.197344 189.981,17.302464 C188.83476,19.162944 184.49028,25.702704 182.88756,26.538624 C182.55132,26.720784 182.20716,26.689104 181.88316,26.592624 C181.35972,26.409024 180.59364,25.899264 180.47844,25.243344 C180.37404,24.647904 180.75564,22.983264 181.74276,20.045664 C180.84708,21.063024 175.71996,27.863424 174.17052,28.137024 C173.63484,28.231344 172.4454,27.059184 172.32444,26.374464 C172.04076,24.765264 174.04884,20.480544 176.84388,17.868384 C178.86996,15.944544 180.72756,14.634864 182.51388,14.319504 C183.0798,14.219424 183.59388,14.343984 183.91428,14.594544 L183.91428,14.594544 Z" id="Fill-44" fill="#939597"></path>
                            <path d="M191.871216,12.884472 C192.028896,12.733992 192.143376,12.683592 192.262176,12.661992 C192.976416,12.536712 194.314176,13.497912 194.445216,14.243112 C194.466096,14.361912 194.350176,14.228712 194.106096,14.240952 C193.655376,14.290632 192.816576,15.634872 192.133296,16.984152 C191.518416,18.198792 190.722816,19.782072 190.291536,20.995272 C191.507616,18.661032 194.045616,15.634152 196.281216,13.335192 C197.295696,12.296232 198.099936,11.633112 198.714816,11.463192 C199.037376,11.375352 200.484576,12.440232 200.317536,12.715992 C199.783296,13.515912 197.695296,16.125912 197.121456,18.623592 C198.530496,18.252072 200.348496,16.549992 201.906576,14.585112 C201.931776,14.550552 202.104576,14.489352 202.145616,14.543352 C201.735216,15.352632 198.749376,19.319832 196.693776,19.681992 C196.157376,19.776312 195.080256,18.890712 195.016896,18.533592 C194.870016,17.699832 195.518016,15.804072 196.135776,14.773752 C193.679136,16.865352 192.488976,18.303912 190.858176,20.895192 C189.626976,22.801032 188.302176,25.737192 189.009936,25.919352 C188.183376,26.280072 187.304976,25.483032 186.950016,24.685992 C186.843456,24.428232 186.892416,23.835672 187.128576,23.088312 C187.573536,21.258792 188.552016,18.967032 189.444096,17.059752 C190.218816,15.356952 191.231136,13.610952 191.871216,12.884472" id="Fill-46" fill="#939597"></path>
                            <path d="M209.792448,16.8192 C207.978048,20.11824 204.738768,29.44224 203.565168,33.05808 C205.345008,29.39688 208.966608,24.67296 209.782368,24.25248 C209.930688,24.22656 209.962368,24.40512 209.962368,24.40512 C206.301888,28.55232 203.473728,35.50032 203.397408,36.98784 C203.349168,37.05768 203.235408,37.1088 203.086368,37.13472 C201.915648,37.46448 201.179808,35.90496 201.174048,35.35272 C201.106368,34.44408 201.500928,33.0228 201.816288,31.67712 C202.765968,28.00944 205.425648,19.4004 208.774368,13.83552 C206.306928,17.43408 202.895568,22.64184 201.170448,23.31432 C201.081168,23.33088 200.991888,23.346 200.932848,23.3568 C200.455488,23.44104 199.391328,22.79952 199.264608,22.08384 C199.038528,20.80368 200.147328,17.50608 201.430368,14.85432 C202.185648,13.21632 203.169888,11.65968 203.809248,10.9332 C203.931648,10.75752 204.105888,10.69704 204.195888,10.6812 C204.910128,10.5552 206.246448,11.51712 206.383248,12.29112 C206.404128,12.41064 206.288928,12.27672 206.044848,12.28968 C205.558128,12.31416 204.588288,13.95936 203.812128,15.47784 C202.639968,17.71128 201.642768,20.59056 201.795408,21.45384 C203.119488,20.6064 205.685568,17.38944 206.843328,15.77304 C208.154448,13.9752 210.025728,11.00448 211.432608,9.40464 C211.585248,9.22392 211.699008,9.17352 211.848048,9.1476 C212.533488,9.02664 213.905088,10.01232 214.036848,10.75752 C214.057728,10.87704 213.912288,10.74888 213.698448,10.75608 C213.455088,10.7676 213.114528,11.10456 212.776848,11.6244 C211.756608,13.15584 210.819168,14.9796 209.792448,16.8192" id="Fill-48" fill="#939597"></path>
                        </g>
                    </g>
                </g>
            </g>
        </g>
    </g>
</svg>